<svg version="1.1" id="Layer_1" xmlns="http://www.w3.org/2000/svg" xmlns:xlink="http://www.w3.org/1999/xlink" x="0px" y="0px"
	 width="100%" viewBox="0 0 360 360" enable-background="new 0 0 360 360" xml:space="preserve">
<path fill="#000000" opacity="1.000000" stroke="none" 
	d="
M172.000000,361.000000 
	C114.686386,361.000000 57.872776,361.000000 1.029583,361.000000 
	C1.029583,241.061371 1.029583,121.122734 1.029583,1.092047 
	C120.896927,1.092047 240.793961,1.092047 360.845490,1.092047 
	C360.845490,120.999847 360.845490,240.999893 360.845490,361.000000 
	C298.122742,361.000000 235.311371,361.000000 172.000000,361.000000 
M144.972778,143.988708 
	C144.972778,143.988708 144.941162,143.922028 144.189987,144.251511 
	C143.476318,150.498581 142.762650,156.745651 141.900726,163.880875 
	C141.952957,166.301132 142.005188,168.721390 141.602951,171.756348 
	C137.966614,172.499908 134.217468,172.902847 130.718552,174.061432 
	C124.385857,176.158356 117.089386,175.670502 111.246185,181.169373 
	C108.933151,185.540161 106.170837,189.739426 104.420448,194.324982 
	C102.215546,200.101242 99.818977,206.115433 99.357536,212.168198 
	C98.766876,219.915710 100.059166,227.809616 94.030197,234.151520 
	C93.859398,234.331192 93.990234,234.797638 93.439674,235.447159 
	C92.703552,236.887482 91.967422,238.327789 91.044067,240.213837 
	C91.044067,240.213837 91.091438,240.694977 90.286926,240.942047 
	C86.277542,246.710464 87.304871,251.481232 94.235992,257.781921 
	C98.483475,257.826721 102.730949,257.871490 107.732788,258.082336 
	C108.499153,258.027557 109.265518,257.972778 110.863449,258.017059 
	C115.429108,257.272552 118.587357,259.379669 121.146286,263.638397 
	C121.760536,263.759674 122.374786,263.880951 123.332481,264.816681 
	C161.587738,264.876678 199.842987,264.941620 238.098251,264.955963 
	C238.766037,264.956238 239.434067,264.346924 240.720093,263.822388 
	C240.807663,263.189484 240.895248,262.556610 241.691818,261.829193 
	C244.448746,258.875916 247.223312,256.776550 251.764893,258.755676 
	C253.473328,259.500183 255.988846,258.392670 259.015594,258.104858 
	C264.123260,258.339386 268.849884,258.336243 272.196472,253.092270 
	C275.862946,247.347046 272.972626,243.216171 269.981110,238.115341 
	C263.558624,229.435745 262.990112,219.265549 261.861572,209.009506 
	C260.781006,199.189697 256.876251,190.079697 250.745209,181.365921 
	C249.005997,180.238144 247.408615,178.625214 245.502594,178.068024 
	C237.941864,175.857758 230.262161,174.056030 222.688248,171.887451 
	C221.595566,171.574600 220.839584,170.085861 220.049515,168.561905 
	C220.016891,168.368149 219.984253,168.174393 220.001541,167.052673 
	C219.318756,161.291428 218.635971,155.530167 217.995575,148.978104 
	C216.621521,144.151001 215.773331,139.089752 213.752411,134.550659 
	C210.577454,127.419563 206.241577,120.802856 203.107788,113.656761 
	C200.911606,108.648750 197.292053,105.536293 192.902557,102.912964 
	C191.217850,101.906105 189.354248,101.188644 187.710052,100.125961 
	C184.168259,97.836838 180.466217,97.120995 176.572769,98.909065 
	C169.985931,101.934090 163.653473,105.433670 159.694504,111.813629 
	C157.992737,114.556068 156.923965,117.692558 155.580780,120.655983 
	C152.369934,127.740013 149.166870,134.827576 145.347672,142.127579 
	C145.198120,142.747879 145.048553,143.368179 144.972778,143.988708 
z"/>
<path fill="#8E1112" opacity="1.000000" stroke="none" 
	d="
M91.091438,240.694977 
	C91.091438,240.694977 91.044067,240.213837 91.307129,239.749115 
	C92.373596,237.899719 93.177017,236.515045 93.980431,235.130356 
	C93.990234,234.797638 93.859398,234.331192 94.030197,234.151520 
	C100.059166,227.809616 98.766876,219.915710 99.357536,212.168198 
	C99.818977,206.115433 102.215546,200.101242 104.420448,194.324982 
	C106.170837,189.739426 108.933151,185.540161 111.913338,181.104584 
	C117.479317,186.733170 122.378151,192.426529 127.237839,198.486588 
	C127.109200,199.808273 127.019707,200.763275 126.516113,201.771606 
	C121.936295,202.256088 119.754677,204.979141 119.917404,209.639359 
	C120.243683,218.983139 120.600632,228.325851 120.536697,237.562256 
	C108.009789,239.349625 103.367432,244.119003 103.969467,254.255981 
	C103.976646,254.690353 104.049187,254.858261 104.071182,255.275757 
	C104.014038,255.695038 104.007439,255.864685 103.743591,256.090454 
	C103.180855,256.301544 102.875366,256.456512 102.193817,256.545776 
	C100.043434,256.514862 98.269104,256.549622 96.339729,256.277344 
	C90.830147,252.097778 90.483345,246.555573 91.091438,240.694977 
M110.525467,228.781998 
	C109.765366,229.477097 109.005272,230.172211 108.117775,230.983810 
	C111.361000,230.983810 114.169189,231.261490 116.874191,230.854065 
	C118.039078,230.678589 119.942284,228.986786 119.857285,228.152191 
	C119.616455,225.787613 119.209000,222.470886 117.617996,221.419525 
	C114.534004,219.381592 106.602921,222.219864 103.571762,225.796997 
	C107.168327,225.610733 110.442245,225.441177 113.716164,225.271622 
	C113.791145,225.793625 113.866127,226.315628 113.941109,226.837631 
	C113.018074,227.376022 112.095047,227.914429 110.525467,228.781998 
z"/>
<path fill="#8F1213" opacity="1.000000" stroke="none" 
	d="
M250.817627,182.074127 
	C256.876251,190.079697 260.781006,199.189697 261.861572,209.009506 
	C262.990112,219.265549 263.558624,229.435745 269.830872,238.776550 
	C270.061493,241.519897 270.494202,243.594131 270.813049,245.685730 
	C271.634521,251.073593 267.973663,255.808655 262.566620,256.406311 
	C261.112915,256.567017 259.656738,256.705414 258.159607,256.847534 
	C258.117493,256.841034 258.077881,256.916443 257.981445,256.480774 
	C258.422882,245.693069 256.087067,241.750458 247.489288,238.776535 
	C245.453339,238.072311 243.309189,237.680893 241.151764,236.696136 
	C241.050171,233.833725 241.011642,231.420761 241.273987,229.250580 
	C245.355118,230.159256 249.135361,230.825150 252.915604,231.491043 
	C253.018890,230.982040 253.122177,230.473022 253.225464,229.964020 
	C251.494843,228.922119 249.764221,227.880234 248.033600,226.838348 
	C249.720657,225.494598 251.356567,225.163513 252.975906,225.230774 
	C254.602997,225.298386 256.213623,225.762680 258.713745,226.211502 
	C252.369385,219.186157 243.922913,219.518707 240.925430,225.535110 
	C241.029160,219.931641 241.790329,214.728470 241.253586,209.662811 
	C240.477585,202.338898 242.550491,202.449188 234.901917,201.402008 
	C234.773819,200.148849 234.712860,199.230942 234.750763,197.949234 
	C238.527283,192.942719 242.063751,188.175140 245.981552,183.744781 
	C246.965302,182.632309 249.172623,182.601837 250.817627,182.074127 
z"/>
<path fill="#CF2021" opacity="1.000000" stroke="none" 
	d="
M127.276978,198.119888 
	C122.378151,192.426529 117.479317,186.733170 112.234924,180.960907 
	C117.089386,175.670502 124.385857,176.158356 130.718552,174.061432 
	C134.217468,172.902847 137.966614,172.499908 142.104492,171.514969 
	C142.861343,171.545486 143.116638,171.817368 143.248840,172.498856 
	C142.469803,182.981003 148.914352,189.398819 154.792648,196.008301 
	C154.301804,196.137390 154.027802,196.254654 153.753815,196.371902 
	C154.064285,196.692337 154.374741,197.012772 154.261032,197.478973 
	C144.983566,197.789795 136.130280,197.954834 127.276978,198.119888 
z"/>
<path fill="#CF2021" opacity="1.000000" stroke="none" 
	d="
M250.781418,181.720032 
	C249.172623,182.601837 246.965302,182.632309 245.981552,183.744781 
	C242.063751,188.175140 238.527283,192.942719 234.339172,197.828094 
	C231.803665,197.898285 229.778595,197.725830 227.404816,197.388824 
	C221.036514,197.192139 215.016891,197.159958 208.986420,196.741379 
	C210.105972,194.277725 211.188828,192.172882 212.375778,190.128479 
	C215.773590,184.276077 220.260391,178.765488 218.111008,170.899414 
	C218.728851,170.090851 219.328308,169.616058 219.927795,169.141266 
	C220.839584,170.085861 221.595566,171.574600 222.688248,171.887451 
	C230.262161,174.056030 237.941864,175.857758 245.502594,178.068024 
	C247.408615,178.625214 249.005997,180.238144 250.781418,181.720032 
z"/>
<path fill="#BF3B3D" opacity="1.000000" stroke="none" 
	d="
M145.960632,141.913712 
	C149.166870,134.827576 152.369934,127.740013 155.580780,120.655983 
	C156.923965,117.692558 157.992737,114.556068 159.694504,111.813629 
	C163.653473,105.433670 169.985931,101.934090 176.572769,98.909065 
	C180.466217,97.120995 184.168259,97.836838 187.710052,100.125961 
	C189.354248,101.188644 191.217850,101.906105 192.902557,102.912964 
	C197.292053,105.536293 200.911606,108.648750 203.107788,113.656761 
	C206.241577,120.802856 210.577454,127.419563 213.752411,134.550659 
	C215.773331,139.089752 216.621521,144.151001 217.696777,149.501877 
	C217.180298,150.365356 216.962631,150.705063 216.461121,151.034515 
	C215.799973,150.992264 215.422668,150.960236 214.886414,150.623108 
	C212.349518,146.783035 210.142426,143.116821 207.552429,139.744690 
	C203.928986,135.027054 199.934982,130.595703 196.251205,125.922310 
	C188.839935,116.520027 180.643951,112.420067 170.028351,120.649796 
	C169.790421,120.834259 169.399277,120.821136 169.102493,120.562836 
	C174.591888,112.409966 186.144974,111.730095 192.800507,119.021057 
	C196.479218,123.050972 199.734451,127.464333 203.304199,131.598099 
	C205.219727,133.816284 207.396805,135.808578 209.455856,137.902817 
	C209.852921,137.590332 210.250000,137.277847 210.647064,136.965378 
	C210.220352,135.615463 209.942612,134.194794 209.340836,132.928040 
	C206.888931,127.766815 204.294739,122.673271 201.834534,117.515884 
	C199.001740,111.577484 195.030167,107.038399 188.819092,104.159760 
	C179.723679,99.944305 171.237961,101.176094 165.587769,109.941437 
	C159.833084,118.868904 155.386719,128.644791 150.505249,138.120148 
	C150.127365,138.853668 150.837463,140.147675 151.024384,141.488281 
	C151.007095,142.206818 151.007309,142.618271 150.913528,143.211639 
	C150.819534,143.393539 150.677505,143.777664 150.491394,143.906281 
	C150.073715,144.254410 149.952744,144.523621 149.899872,144.862732 
	C149.857391,144.882904 149.824844,144.971146 149.530762,145.115829 
	C148.754913,146.437958 148.273148,147.615402 147.697906,148.999023 
	C147.604416,149.205200 147.496094,149.644806 147.241180,149.779938 
	C146.293365,150.253098 145.600464,150.591125 144.851471,150.486481 
	C144.843979,148.003235 144.892563,145.962631 144.941162,143.922028 
	C144.941162,143.922028 144.972778,143.988708 145.302658,143.992447 
	C145.741913,143.302032 145.851273,142.607864 145.960632,141.913712 
z"/>
<path fill="#CBCDCE" opacity="1.000000" stroke="none" 
	d="
M122.989037,264.002197 
	C122.374786,263.880951 121.760536,263.759674 121.074150,262.983582 
	C121.068436,262.109619 121.134857,261.890503 121.608658,261.909668 
	C122.813683,262.333679 123.611198,262.681244 124.408997,262.681885 
	C161.614487,262.711304 198.820084,262.736420 236.025223,262.621704 
	C237.567032,262.616974 239.104721,261.270386 240.804199,260.874084 
	C240.970322,261.440765 240.976578,261.682220 240.982819,261.923706 
	C240.895248,262.556610 240.807663,263.189484 239.936066,263.938965 
	C200.431046,264.037781 161.710037,264.019989 122.989037,264.002197 
z"/>
<path fill="#741F20" opacity="1.000000" stroke="none" 
	d="
M215.045364,150.928192 
	C215.422668,150.960236 215.799973,150.992264 216.551392,151.447266 
	C217.444977,155.214859 217.904602,158.570297 218.506042,161.900116 
	C218.875793,163.947189 219.462372,165.955124 219.951599,167.980621 
	C219.984253,168.174393 220.016891,168.368149 219.988647,168.851593 
	C219.328308,169.616058 218.728851,170.090851 217.832443,171.121033 
	C217.025177,172.467499 216.108673,173.239471 216.070419,174.052734 
	C215.821182,179.351120 213.104263,182.705566 208.604050,185.333282 
	C203.925323,188.065201 199.634857,191.462006 194.567688,194.990707 
	C199.021103,195.917648 202.498764,196.641495 205.537888,197.529160 
	C199.743378,197.650558 194.387390,197.608154 189.023956,197.222168 
	C190.004730,195.648270 190.775833,194.106522 192.018021,193.240448 
	C197.983093,189.081497 204.184647,185.254272 210.047638,180.961548 
	C211.556442,179.856857 212.826797,177.566345 213.033157,175.691406 
	C213.938828,167.462860 214.414062,159.186951 215.045364,150.928192 
z"/>
<path fill="#FFFFFF" opacity="1.000000" stroke="none" 
	d="
M123.160759,264.409424 
	C161.710037,264.019989 200.431046,264.037781 239.627014,264.038818 
	C239.434067,264.346924 238.766037,264.956238 238.098251,264.955963 
	C199.842987,264.941620 161.587738,264.876678 123.160759,264.409424 
z"/>
<path fill="#F9EDEB" opacity="1.000000" stroke="none" 
	d="
M104.000839,256.034332 
	C104.007439,255.864685 104.014038,255.695038 104.219261,255.176666 
	C104.290184,254.548477 104.162498,254.269012 104.034813,253.989532 
	C103.367432,244.119003 108.009789,239.349625 120.538605,237.898041 
	C120.901649,238.557373 120.854561,238.774139 120.454483,239.044098 
	C116.184052,240.260681 112.378937,241.570847 110.643387,246.058456 
	C104.234390,246.847061 107.076576,250.231857 107.938660,253.348297 
	C107.432732,255.023239 107.205582,256.469757 106.978432,257.916290 
	C102.730949,257.871490 98.483475,257.826721 94.455582,257.349884 
	C95.281708,256.806702 95.888245,256.695557 96.494781,256.584412 
	C98.269104,256.549622 100.043434,256.514862 102.492104,256.657013 
	C103.444580,256.567413 103.722710,256.300873 104.000839,256.034332 
z"/>
<path fill="#DBB5B4" opacity="1.000000" stroke="none" 
	d="
M258.201691,256.854065 
	C259.656738,256.705414 261.112915,256.567017 262.566620,256.406311 
	C267.973663,255.808655 271.634521,251.073593 270.813049,245.685730 
	C270.494202,243.594131 270.061493,241.519897 269.824768,239.131958 
	C272.972626,243.216171 275.862946,247.347046 272.196472,253.092270 
	C268.849884,258.336243 264.123260,258.339386 258.629211,257.800446 
	C258.229156,257.282043 258.215424,257.068054 258.201691,256.854065 
z"/>
<path fill="#FFFFFF" opacity="1.000000" stroke="none" 
	d="
M258.159607,256.847534 
	C258.215424,257.068054 258.229156,257.282043 258.189636,257.812744 
	C255.988846,258.392670 253.473328,259.500183 251.764893,258.755676 
	C247.223312,256.776550 244.448746,258.875916 241.337311,261.876465 
	C240.976578,261.682220 240.970322,261.440765 240.722229,260.466003 
	C240.725601,257.503876 240.970840,255.275009 241.447723,253.071487 
	C241.679367,253.096832 242.143692,253.056503 242.524841,253.040436 
	C243.920944,253.010330 244.935928,252.996307 245.916992,253.341400 
	C245.541641,257.502014 246.686111,257.907074 252.276917,255.916199 
	C254.468018,256.309235 256.272949,256.612854 258.077881,256.916443 
	C258.077881,256.916443 258.117493,256.841034 258.159607,256.847534 
z"/>
<path fill="#DBB5B4" opacity="1.000000" stroke="none" 
	d="
M96.339729,256.277344 
	C95.888245,256.695557 95.281708,256.806702 94.213577,256.975586 
	C87.304871,251.481232 86.277542,246.710464 90.689178,240.818512 
	C90.483345,246.555573 90.830147,252.097778 96.339729,256.277344 
z"/>
<path fill="#741F20" opacity="1.000000" stroke="none" 
	d="
M143.371948,172.089264 
	C143.116638,171.817368 142.861343,171.545486 142.331726,171.207611 
	C142.005188,168.721390 141.952957,166.301132 142.380356,163.343353 
	C143.495087,160.226776 144.130188,157.647705 145.107117,155.628052 
	C145.672821,157.755341 145.896683,159.323212 145.825485,161.182159 
	C145.035690,164.944183 144.540955,168.415131 143.875031,171.928192 
	C143.703842,171.970322 143.371948,172.089264 143.371948,172.089264 
z"/>
<path fill="#F9EDEB" opacity="1.000000" stroke="none" 
	d="
M121.201294,261.671356 
	C121.134857,261.890503 121.068436,262.109619 120.996536,262.672180 
	C118.587357,259.379669 115.429108,257.272552 110.513458,257.686737 
	C110.423599,257.078217 110.683739,256.800018 111.346619,256.656250 
	C113.129570,256.815216 114.509796,256.839691 116.199463,256.852509 
	C117.335480,255.252609 118.162033,253.664398 119.223633,252.167206 
	C119.890190,252.519257 120.321709,252.780289 120.840225,253.470306 
	C121.018578,256.489990 121.109932,259.080658 121.201294,261.671356 
z"/>
<path fill="#F1E1E1" opacity="1.000000" stroke="none" 
	d="
M144.765289,155.068649 
	C144.130188,157.647705 143.495087,160.226776 142.454483,162.899277 
	C142.762650,156.745651 143.476318,150.498581 144.565582,144.086761 
	C144.892563,145.962631 144.843979,148.003235 144.681747,150.748337 
	C144.558395,152.228760 144.548676,153.004684 144.446472,153.961151 
	C144.491089,154.450684 144.628189,154.759674 144.765289,155.068649 
z"/>
<path fill="#F1E1E1" opacity="1.000000" stroke="none" 
	d="
M219.976562,167.516647 
	C219.462372,165.955124 218.875793,163.947189 218.506042,161.900116 
	C217.904602,158.570297 217.444977,155.214859 216.835236,151.457489 
	C216.962631,150.705063 217.180298,150.365356 217.675568,149.897278 
	C218.635971,155.530167 219.318756,161.291428 219.976562,167.516647 
z"/>
<path fill="#CBCDCE" opacity="1.000000" stroke="none" 
	d="
M110.943878,256.521820 
	C110.683739,256.800018 110.423599,257.078217 110.097672,257.637207 
	C109.265518,257.972778 108.499153,258.027557 107.355606,257.999329 
	C107.205582,256.469757 107.432732,255.023239 108.189484,253.481842 
	C109.460678,254.431915 110.202278,255.476868 110.943878,256.521820 
z"/>
<path fill="#DBB5B4" opacity="1.000000" stroke="none" 
	d="
M93.710052,235.288757 
	C93.177017,236.515045 92.373596,237.899719 91.400742,239.526245 
	C91.967422,238.327789 92.703552,236.887482 93.710052,235.288757 
z"/>
<path fill="#F1E1E1" opacity="1.000000" stroke="none" 
	d="
M145.654144,142.020645 
	C145.851273,142.607864 145.741913,143.302032 145.265778,143.992340 
	C145.048553,143.368179 145.198120,142.747879 145.654144,142.020645 
z"/>
<path fill="#030202" opacity="1.000000" stroke="none" 
	d="
M121.608658,261.909668 
	C121.109932,259.080658 121.018578,256.489990 120.934166,253.015808 
	C120.903984,248.731216 120.866859,245.330124 120.904739,241.565125 
	C120.922318,240.464462 120.864891,239.727692 120.807472,238.990921 
	C120.854561,238.774139 120.901649,238.557373 120.946823,238.004791 
	C120.600632,228.325851 120.243683,218.983139 119.917404,209.639359 
	C119.754677,204.979141 121.936295,202.256088 126.994164,201.856873 
	C139.176666,201.904236 150.467072,201.949997 161.757355,201.928864 
	C186.161285,201.883194 210.565155,201.803207 234.969040,201.737244 
	C242.550491,202.449188 240.477585,202.338898 241.253586,209.662811 
	C241.790329,214.728470 241.029160,219.931641 240.885559,225.910461 
	C240.939804,227.500977 240.956451,228.254395 240.973099,229.007812 
	C241.011642,231.420761 241.050171,233.833725 241.070480,237.096039 
	C241.070099,239.289200 241.087952,240.632996 241.035919,242.433655 
	C241.049393,246.275742 241.132721,249.660934 241.216064,253.046143 
	C240.970840,255.275009 240.725601,257.503876 240.562347,260.140839 
	C239.104721,261.270386 237.567032,262.616974 236.025223,262.621704 
	C198.820084,262.736420 161.614487,262.711304 124.408997,262.681885 
	C123.611198,262.681244 122.813683,262.333679 121.608658,261.909668 
z"/>
<path fill="#BDC9D0" opacity="1.000000" stroke="none" 
	d="
M234.901917,201.402008 
	C210.565155,201.803207 186.161285,201.883194 161.757355,201.928864 
	C150.467072,201.949997 139.176666,201.904236 127.408257,201.803528 
	C127.019707,200.763275 127.109200,199.808273 127.237839,198.486588 
	C136.130280,197.954834 144.983566,197.789795 154.744446,197.616394 
	C161.959793,197.613220 168.267563,197.618378 175.057648,197.686371 
	C176.175598,197.707062 176.811234,197.664902 177.466736,197.673553 
	C177.486603,197.724335 177.529343,197.623947 178.012070,197.694855 
	C182.007004,197.699097 185.519211,197.632416 189.031418,197.565735 
	C194.387390,197.608154 199.743378,197.650558 205.913116,197.629150 
	C207.487030,197.463837 208.247192,197.362335 209.437469,197.453461 
	C215.829559,197.615173 221.791550,197.584259 227.753525,197.553345 
	C229.778595,197.725830 231.803665,197.898285 234.240326,198.191895 
	C234.712860,199.230942 234.773819,200.148849 234.901917,201.402008 
z"/>
<path fill="#C11A19" opacity="1.000000" stroke="none" 
	d="
M110.848740,228.617401 
	C112.095047,227.914429 113.018074,227.376022 113.941109,226.837631 
	C113.866127,226.315628 113.791145,225.793625 113.716164,225.271622 
	C110.442245,225.441177 107.168327,225.610733 103.571762,225.796997 
	C106.602921,222.219864 114.534004,219.381592 117.617996,221.419525 
	C119.209000,222.470886 119.616455,225.787613 119.857285,228.152191 
	C119.942284,228.986786 118.039078,230.678589 116.874191,230.854065 
	C114.169189,231.261490 111.361000,230.983810 108.117775,230.983810 
	C109.005272,230.172211 109.765366,229.477097 110.848740,228.617401 
z"/>
<path fill="#DBB5B4" opacity="1.000000" stroke="none" 
	d="
M103.969467,254.255981 
	C104.162498,254.269012 104.290184,254.548477 104.269798,254.927063 
	C104.049187,254.858261 103.976646,254.690353 103.969467,254.255981 
z"/>
<path fill="#DBB5B4" opacity="1.000000" stroke="none" 
	d="
M103.743591,256.090454 
	C103.722710,256.300873 103.444580,256.567413 102.868164,256.722717 
	C102.875366,256.456512 103.180855,256.301544 103.743591,256.090454 
z"/>
<path fill="#F1E1E1" opacity="1.000000" stroke="none" 
	d="
M241.105804,241.976791 
	C241.087952,240.632996 241.070099,239.289200 241.133545,237.545502 
	C243.309189,237.680893 245.453339,238.072311 247.489288,238.776535 
	C256.087067,241.750458 258.422882,245.693069 257.981445,256.480774 
	C256.272949,256.612854 254.468018,256.309235 252.356613,255.582169 
	C256.177704,248.359192 255.969788,247.289001 249.925217,244.760178 
	C248.492294,243.989670 247.219482,243.503952 245.595184,242.975677 
	C243.864395,242.614349 242.485092,242.295578 241.105804,241.976791 
z"/>
<path fill="#C11A19" opacity="1.000000" stroke="none" 
	d="
M241.273987,229.250580 
	C240.956451,228.254395 240.939804,227.500977 240.963028,226.372208 
	C243.922913,219.518707 252.369385,219.186157 258.713745,226.211502 
	C256.213623,225.762680 254.602997,225.298386 252.975906,225.230774 
	C251.356567,225.163513 249.720657,225.494598 248.033600,226.838348 
	C249.764221,227.880234 251.494843,228.922119 253.225464,229.964020 
	C253.122177,230.473022 253.018890,230.982040 252.915604,231.491043 
	C249.135361,230.825150 245.355118,230.159256 241.273987,229.250580 
z"/>
<path fill="#761517" opacity="1.000000" stroke="none" 
	d="
M174.575333,197.623520 
	C168.267563,197.618378 161.959793,197.613220 155.168610,197.470642 
	C154.374741,197.012772 154.064285,196.692337 153.753815,196.371902 
	C154.027802,196.254654 154.301804,196.137390 155.191605,196.014954 
	C157.748230,195.108505 159.689026,194.207230 161.629837,193.305939 
	C160.307846,191.975418 159.070694,190.545090 157.646713,189.334518 
	C154.371567,186.550171 150.876038,184.009262 147.764999,181.058472 
	C146.961456,180.296341 147.248947,178.383911 147.368790,177.058029 
	C151.879242,180.688019 155.908005,184.454453 160.273666,187.778381 
	C164.873199,191.280334 169.794571,194.359589 174.575333,197.623520 
z"/>
<path fill="#910B0B" opacity="1.000000" stroke="none" 
	d="
M147.035248,176.999893 
	C147.248947,178.383911 146.961456,180.296341 147.764999,181.058472 
	C150.876038,184.009262 154.371567,186.550171 157.646713,189.334518 
	C159.070694,190.545090 160.307846,191.975418 161.629837,193.305939 
	C159.689026,194.207230 157.748230,195.108505 155.408463,196.003128 
	C148.914352,189.398819 142.469803,182.981003 143.248840,172.498856 
	C143.371948,172.089264 143.703842,171.970322 144.227783,171.965057 
	C145.460571,171.984100 146.169434,172.008423 146.909790,172.445648 
	C146.972610,174.238998 147.003937,175.619446 147.035248,176.999893 
z"/>
<path fill="#910B0B" opacity="1.000000" stroke="none" 
	d="
M209.007339,197.260834 
	C208.247192,197.362335 207.487030,197.463837 206.351654,197.465332 
	C202.498764,196.641495 199.021103,195.917648 194.567688,194.990707 
	C199.634857,191.462006 203.925323,188.065201 208.604050,185.333282 
	C213.104263,182.705566 215.821182,179.351120 216.070419,174.052734 
	C216.108673,173.239471 217.025177,172.467499 217.814072,171.454803 
	C220.260391,178.765488 215.773590,184.276077 212.375778,190.128479 
	C211.188828,192.172882 210.105972,194.277725 208.973022,196.775818 
	C208.970459,197.196655 209.007339,197.260818 209.007339,197.260834 
z"/>
<path fill="#741F20" opacity="1.000000" stroke="none" 
	d="
M209.437469,197.453445 
	C209.007339,197.260818 208.970459,197.196655 208.983871,197.162231 
	C215.016891,197.159958 221.036514,197.192139 227.404816,197.388824 
	C221.791550,197.584259 215.829559,197.615173 209.437469,197.453445 
z"/>
<path fill="#261715" opacity="1.000000" stroke="none" 
	d="
M147.368805,177.058029 
	C147.003937,175.619446 146.972610,174.238998 146.996262,172.079086 
	C146.740997,167.830109 146.430771,164.360596 146.120544,160.891083 
	C145.896683,159.323212 145.672821,157.755341 145.107117,155.628052 
	C144.628189,154.759674 144.491089,154.450684 144.884979,154.025757 
	C146.109329,152.488129 146.802704,151.066467 147.496094,149.644806 
	C147.496094,149.644806 147.604416,149.205200 148.036118,148.910172 
	C148.920166,147.400482 149.372498,146.185806 149.824844,144.971146 
	C149.824844,144.971146 149.857391,144.882904 150.130234,144.777740 
	C150.688568,144.433899 150.780045,144.135590 150.677505,143.777664 
	C150.677505,143.777664 150.819534,143.393539 151.234161,143.152023 
	C152.084702,142.241364 152.520630,141.572205 153.215256,140.702576 
	C158.619278,134.027863 163.764587,127.553619 168.980652,121.061386 
	C169.051376,121.043404 169.079605,120.900177 169.079605,120.900177 
	C169.399277,120.821136 169.790421,120.834259 170.028351,120.649796 
	C180.643951,112.420067 188.839935,116.520027 196.251205,125.922310 
	C199.934982,130.595703 203.928986,135.027054 207.552429,139.744690 
	C210.142426,143.116821 212.349518,146.783035 214.886414,150.623123 
	C214.414062,159.186951 213.938828,167.462860 213.033157,175.691406 
	C212.826797,177.566345 211.556442,179.856857 210.047638,180.961548 
	C204.184647,185.254272 197.983093,189.081497 192.018021,193.240448 
	C190.775833,194.106522 190.004730,195.648270 189.023956,197.222168 
	C185.519211,197.632416 182.007004,197.699097 178.043304,197.633682 
	C177.591797,197.501587 177.446884,197.622742 177.446884,197.622742 
	C176.811234,197.664902 176.175598,197.707062 175.057648,197.686371 
	C169.794571,194.359589 164.873199,191.280334 160.273666,187.778381 
	C155.908005,184.454453 151.879242,180.688019 147.368805,177.058029 
z"/>
<path fill="#D71617" opacity="1.000000" stroke="none" 
	d="
M151.041901,141.181183 
	C150.837463,140.147675 150.127365,138.853668 150.505249,138.120148 
	C155.386719,128.644791 159.833084,118.868904 165.587769,109.941437 
	C171.237961,101.176094 179.723679,99.944305 188.819092,104.159760 
	C195.030167,107.038399 199.001740,111.577484 201.834534,117.515884 
	C204.294739,122.673271 206.888931,127.766815 209.340836,132.928040 
	C209.942612,134.194794 210.220352,135.615463 210.647064,136.965378 
	C210.250000,137.277847 209.852921,137.590332 209.455856,137.902817 
	C207.396805,135.808578 205.219727,133.816284 203.304199,131.598099 
	C199.734451,127.464333 196.479218,123.050972 192.800507,119.021057 
	C186.144974,111.730095 174.591888,112.409966 169.102493,120.562836 
	C169.079605,120.900177 169.051376,121.043404 168.625671,121.043182 
	C167.061325,121.860802 165.702530,122.492065 164.823273,123.529678 
	C161.526291,127.420479 158.317795,131.391922 155.220337,135.443359 
	C153.973206,137.074600 153.098145,138.990311 151.798904,140.872955 
	C151.376663,141.039963 151.209274,141.110580 151.041901,141.181183 
z"/>
<path fill="#741F20" opacity="1.000000" stroke="none" 
	d="
M147.241165,149.779938 
	C146.802704,151.066467 146.109329,152.488129 144.977463,153.845215 
	C144.548676,153.004684 144.558395,152.228760 144.737854,151.190979 
	C145.600464,150.591125 146.293365,150.253098 147.241165,149.779938 
z"/>
<path fill="#741F20" opacity="1.000000" stroke="none" 
	d="
M149.530762,145.115829 
	C149.372498,146.185806 148.920166,147.400482 148.129608,148.703995 
	C148.273148,147.615402 148.754913,146.437958 149.530762,145.115829 
z"/>
<path fill="#741F20" opacity="1.000000" stroke="none" 
	d="
M151.024384,141.488281 
	C151.209274,141.110580 151.376663,141.039963 152.022919,140.915771 
	C152.501801,140.862198 152.956543,140.903046 152.956543,140.903046 
	C152.520630,141.572205 152.084702,142.241364 151.328156,142.970123 
	C151.007309,142.618271 151.007095,142.206818 151.024384,141.488281 
z"/>
<path fill="#741F20" opacity="1.000000" stroke="none" 
	d="
M150.491394,143.906281 
	C150.780045,144.135590 150.688568,144.433899 150.172729,144.757568 
	C149.952744,144.523621 150.073715,144.254410 150.491394,143.906281 
z"/>
<path fill="#F1E1E1" opacity="1.000000" stroke="none" 
	d="
M120.454483,239.044098 
	C120.864891,239.727692 120.922318,240.464462 120.555595,241.631149 
	C116.109489,243.157349 115.122894,245.384476 117.474464,248.969131 
	C118.101318,249.924683 118.490364,251.036240 118.988586,252.076172 
	C118.162033,253.664398 117.335480,255.252609 116.223343,256.483795 
	C114.294197,252.770996 112.650642,249.415237 111.007080,246.059464 
	C112.378937,241.570847 116.184052,240.260681 120.454483,239.044098 
z"/>
<path fill="#BBD3DE" opacity="1.000000" stroke="none" 
	d="
M110.643387,246.058456 
	C112.650642,249.415237 114.294197,252.770996 115.913887,256.495483 
	C114.509796,256.839691 113.129570,256.815216 111.346619,256.656250 
	C110.202278,255.476868 109.460678,254.431915 108.468262,253.253418 
	C107.076576,250.231857 104.234390,246.847061 110.643387,246.058456 
z"/>
<path fill="#BBD3DE" opacity="1.000000" stroke="none" 
	d="
M250.085327,245.044968 
	C255.969788,247.289001 256.177704,248.359192 251.970459,255.492706 
	C246.686111,257.907074 245.541641,257.502014 246.187164,253.135406 
	C247.689255,250.061844 248.887299,247.553406 250.085327,245.044968 
z"/>
<path fill="#F9EDEB" opacity="1.000000" stroke="none" 
	d="
M249.925217,244.760178 
	C248.887299,247.553406 247.689255,250.061844 246.221069,252.776276 
	C244.935928,252.996307 243.920944,253.010330 242.639023,252.711380 
	C243.563614,249.271683 244.755142,246.144958 245.946686,243.018219 
	C247.219482,243.503952 248.492294,243.989670 249.925217,244.760178 
z"/>
<path fill="#BBD3DE" opacity="1.000000" stroke="none" 
	d="
M245.595184,242.975677 
	C244.755142,246.144958 243.563614,249.271683 242.257874,252.727448 
	C242.143692,253.056503 241.679367,253.096832 241.447723,253.071487 
	C241.132721,249.660934 241.049393,246.275742 241.035919,242.433655 
	C242.485092,242.295578 243.864395,242.614349 245.595184,242.975677 
z"/>
<path fill="#761517" opacity="1.000000" stroke="none" 
	d="
M145.825485,161.182159 
	C146.430771,164.360596 146.740997,167.830109 146.964752,171.666183 
	C146.169434,172.008423 145.460571,171.984100 144.398956,171.922913 
	C144.540955,168.415131 145.035690,164.944183 145.825485,161.182159 
z"/>
<path fill="#BBD3DE" opacity="1.000000" stroke="none" 
	d="
M119.223633,252.167206 
	C118.490364,251.036240 118.101318,249.924683 117.474464,248.969131 
	C115.122894,245.384476 116.109489,243.157349 120.480598,241.995056 
	C120.866859,245.330124 120.903984,248.731216 120.847168,252.586823 
	C120.321709,252.780289 119.890190,252.519257 119.223633,252.167206 
z"/>
<path fill="#761517" opacity="1.000000" stroke="none" 
	d="
M177.466736,197.673538 
	C177.446884,197.622742 177.591797,197.501587 177.560577,197.562775 
	C177.529343,197.623947 177.486603,197.724335 177.466736,197.673538 
z"/>
<path fill="#BF3B3D" opacity="1.000000" stroke="none" 
	d="
M153.215256,140.702576 
	C152.956543,140.903046 152.501801,140.862198 152.277786,140.819366 
	C153.098145,138.990311 153.973206,137.074600 155.220337,135.443359 
	C158.317795,131.391922 161.526291,127.420479 164.823273,123.529678 
	C165.702530,122.492065 167.061325,121.860802 168.554932,121.061172 
	C163.764587,127.553619 158.619278,134.027863 153.215256,140.702576 
z"/>
</svg>